
<svg xmlns="http://www.w3.org/2000/svg" xmlns:xlink="http://www.w3.org/1999/xlink" viewBox="0 0 154.8 127.7" enable-background="new 0 0 154.8 127.7"><style type="text/css">.st0{clip-path:url(#SVGID_2_);} .st1{clip-path:url(#SVGID_4_);} .st2{enable-background:new ;} .st3{fill:#231F20;} .st4{fill:none;stroke:#231F20;stroke-linecap:round;stroke-miterlimit:10;}</style><title>akimagine-logo</title><defs><path id="SVGID_1_" d="M-1.1.1h186.8v152.5H-1.1z"/><linearGradient id="gradient" x1="0%" y1="0%"><stop offset="0%" stop-color="#144751"/><stop offset="25%" stop-color="#193566"/><stop offset="50%" stop-color="#00A6DE"/><stop offset="75%" stop-color="#902DB7"/><stop offset="100%" stop-color="#144751"/></linearGradient><pattern id="pattern" width="300%" height="100%" patternUnits="userSpaceOnUse"><rect width="150%" height="100%" fill="url(#gradient)"><animate attributeType="XML" attributeName="x" from="0" to="150%" dur="7s" repeatCount="indefinite"/></rect><rect width="150%" height="100%" x="-150%" fill="url(#gradient)"><animate attributeType="XML" attributeName="x" from="-150%" to="0" dur="7s" repeatCount="indefinite"/></rect></pattern></defs><clipPath id="SVGID_2_"><use xlink:href="#SVGID_1_" overflow="visible"/></clipPath><g fill="url(#pattern)" class="st0"><defs><path id="SVGID_3_" d="M-1.1.1h186.8v152.5H-1.1z"/></defs><clipPath id="SVGID_4_"><use xlink:href="#SVGID_3_" overflow="visible"/></clipPath><g class="st1"><path d="M84.9 116.4c0 .5-.2 1-.6 1.4-.4.4-.8.6-1.4.6-1 0-1.7-.4-2-1.3L42.9 21l-4.3 11.1c.3.7 1.1 2.4 2.2 5.2 1.1 2.8 2.5 6.2 4.2 10.3 1.7 4.1 3.4 8.5 5.4 13.5 1.9 4.9 3.9 9.9 5.9 15 2 5.1 3.9 10 5.8 14.8 1.9 4.8 3.5 9.1 5 12.8 1.4 3.8 2.6 6.8 3.5 9.1.9 2.3 1.3 3.5 1.3 3.6 0 1-.4 1.6-1.3 1.8-.2 0-.3 0-.4.1-.1 0-.2.1-.4.1-.9 0-1.5-.4-1.8-1.3L36.5 37.8 6 117c-.3.9-1 1.3-2 1.3-.2 0-.3 0-.3-.1 0 0-.2-.1-.3-.1-.9-.3-1.3-.9-1.3-2 0-.1.5-1.5 1.6-4.3 1-2.8 2.4-6.4 4.1-10.9 1.7-4.4 3.7-9.5 5.9-15.3 2.2-5.8 4.5-11.7 6.8-17.7 2.3-6.1 4.6-12.1 6.9-18 2.3-5.9 4.4-11.4 6.3-16.3 1.9-4.9 3.5-9.1 4.8-12.4 1.3-3.4 2.1-5.5 2.5-6.5.3-.8 1-1.2 2-1.2s1.6.4 1.8 1.2c.3 1 1.2 3.1 2.6 6.5 1.4 3.4 3 7.5 4.9 12.4 1.9 4.9 4.1 10.4 6.5 16.3 2.4 5.9 4.8 11.9 7.2 18 2.4 6.1 4.8 12 7.1 17.7 2.3 5.8 4.3 10.9 6.1 15.4 1.7 4.5 3.2 8.1 4.3 10.9.8 2.9 1.4 4.4 1.4 4.5zM143.6 117.4c0 .5-.2 1-.7 1.3-.5.3-.9.5-1.4.5-.7 0-1.2-.3-1.6-.8l-35.2-49.2-19.3 19.4v27.7c0 .5-.2 1-.6 1.4-.4.4-.9.6-1.4.6s-1-.2-1.4-.5c-.4-.3-.6-.8-.6-1.4V17.2c0-.6.2-1.1.6-1.4.4-.3.9-.5 1.4-.5s1 .2 1.4.6c.4.4.6.9.6 1.4v48.1l50.1-50.2c.4-.4.9-.7 1.3-.7.5 0 1 .2 1.4.7.4.5.7.9.7 1.4 0 .5-.2 1-.7 1.4L85.4 71v12c.3-.3 1-1.1 2.1-2.2 1-1.1 2.2-2.3 3.5-3.7 1.3-1.4 2.7-2.8 4.3-4.3 1.5-1.5 2.9-2.9 4.2-4.1 1.3-1.3 2.4-2.3 3.4-3.1 1-.8 1.6-1.2 1.8-1.2.8 0 1.4.3 1.8.8.5.8 1.8 2.6 3.9 5.4 2 2.8 4.4 6.1 7.2 9.9 2.7 3.8 5.6 7.7 8.7 11.9 3.1 4.2 5.9 8.1 8.4 11.7 2.6 3.6 4.7 6.7 6.3 9.2 1.8 2.3 2.6 3.8 2.6 4.1z" class="st2"/><path d="M80.2 3.8C80.2 2 81.7.5 83.5.5s3.3 1.5 3.3 3.3c0 1.8-1.5 3.3-3.3 3.3-1.9 0-3.3-1.5-3.3-3.3" class="st3"/><circle cx="83.4" cy="3.8" r="3.3" class="st4"/></g></g></svg>