<?xml version="1.0" encoding="utf-8"?>
<!-- Generator: Adobe Illustrator 19.2.1, SVG Export Plug-In . SVG Version: 6.00 Build 0)  -->
<svg version="1.1" id="Layer_1" xmlns="http://www.w3.org/2000/svg" xmlns:xlink="http://www.w3.org/1999/xlink" x="0px" y="0px"
	 viewBox="0 0 154.8 127.7" style="enable-background:new 0 0 154.8 127.7;" xml:space="preserve">
<style type="text/css">
	.st0{clip-path:url(#SVGID_2_);}
	.st1{clip-path:url(#SVGID_4_);}
	.st2{enable-background:new    ;}
	.st3{fill:#231F20;}
	.st4{fill:none;stroke:#231F20;stroke-linecap:round;stroke-miterlimit:10;}
</style>
<title>akimagine-logo</title>
<g>
	<defs>
		<rect id="SVGID_1_" x="-1.1" y="0.1" width="186.8" height="152.5"/>
        <linearGradient id="gradient" x1="0%" y1="0%" x2="100%" y2="0">
            <stop offset="0%" style="stop-color:#144751;"/>
            <stop offset="25%" style="stop-color:#193566;"/>
            <stop offset="50%" style="stop-color:#00A6DE;"/>
            <stop offset="75%" style="stop-color:#902DB7;"/>
            <stop offset="100%" style="stop-color:#144751;"/>
        </linearGradient>

        <!-- Stitch 2 gradients together for seamless animation  -->
        <pattern id="pattern" x="0" y="0" width="300%" height="100%" patternUnits="userSpaceOnUse">
            <rect x="0" y="0" width="150%" height="100%" fill="url(#gradient)">
            <animate attributeType="XML"
                        attributeName="x"
                        from="0" to="150%"
                        dur="7s"
                        repeatCount="indefinite"/>
            </rect>
            <rect x="-150%" y="0" width="150%" height="100%" fill="url(#gradient)">
            <animate attributeType="XML"
                        attributeName="x"
                        from="-150%" to="0"
                        dur="7s"
                        repeatCount="indefinite"/>
            </rect>
        </pattern>
	</defs>
	<clipPath id="SVGID_2_">
		<use xlink:href="#SVGID_1_"  style="overflow:visible;"/>
	</clipPath>
	<g class="st0" fill="url(#pattern)">
		<g>
			<defs>
				<rect id="SVGID_3_" x="-1.1" y="0.1" width="186.8" height="152.5"/>
			</defs>
			<clipPath id="SVGID_4_">
				<use xlink:href="#SVGID_3_"  style="overflow:visible;"/>
			</clipPath>
			<g class="st1">
				<g class="st2">
					<path d="M84.9,116.4c0,0.5-0.2,1-0.6,1.4c-0.4,0.4-0.8,0.6-1.4,0.6c-1,0-1.7-0.4-2-1.3L42.9,21l-4.3,11.1
						c0.3,0.7,1.1,2.4,2.2,5.2c1.1,2.8,2.5,6.2,4.2,10.3c1.7,4.1,3.4,8.5,5.4,13.5c1.9,4.9,3.9,9.9,5.9,15c2,5.1,3.9,10,5.8,14.8
						c1.9,4.8,3.5,9.1,5,12.8c1.4,3.8,2.6,6.8,3.5,9.1c0.9,2.3,1.3,3.5,1.3,3.6c0,1-0.4,1.6-1.3,1.8c-0.2,0-0.3,0-0.4,0.1
						c-0.1,0-0.2,0.1-0.4,0.1c-0.9,0-1.5-0.4-1.8-1.3L36.5,37.8L6,117c-0.3,0.9-1,1.3-2,1.3c-0.2,0-0.3,0-0.3-0.1
						c0,0-0.2-0.1-0.3-0.1c-0.9-0.3-1.3-0.9-1.3-2c0-0.1,0.5-1.5,1.6-4.3c1-2.8,2.4-6.4,4.1-10.9c1.7-4.4,3.7-9.5,5.9-15.3
						c2.2-5.8,4.5-11.7,6.8-17.7c2.3-6.1,4.6-12.1,6.9-18c2.3-5.9,4.4-11.4,6.3-16.3c1.9-4.9,3.5-9.1,4.8-12.4
						c1.3-3.4,2.1-5.5,2.5-6.5c0.3-0.8,1-1.2,2-1.2c1,0,1.6,0.4,1.8,1.2c0.3,1,1.2,3.1,2.6,6.5c1.4,3.4,3,7.5,4.9,12.4
						c1.9,4.9,4.1,10.4,6.5,16.3c2.4,5.9,4.8,11.9,7.2,18c2.4,6.1,4.8,12,7.1,17.7c2.3,5.8,4.3,10.9,6.1,15.4
						c1.7,4.5,3.2,8.1,4.3,10.9C84.3,114.8,84.9,116.3,84.9,116.4z"/>
				</g>
				<g class="st2">
					<path d="M143.6,117.4c0,0.5-0.2,1-0.7,1.3c-0.5,0.3-0.9,0.5-1.4,0.5c-0.7,0-1.2-0.3-1.6-0.8l-35.2-49.2L85.4,88.6v27.7
						c0,0.5-0.2,1-0.6,1.4c-0.4,0.4-0.9,0.6-1.4,0.6s-1-0.2-1.4-0.5c-0.4-0.3-0.6-0.8-0.6-1.4V17.2c0-0.6,0.2-1.1,0.6-1.4
						c0.4-0.3,0.9-0.5,1.4-0.5s1,0.2,1.4,0.6c0.4,0.4,0.6,0.9,0.6,1.4v48.1l50.1-50.2c0.4-0.4,0.9-0.7,1.3-0.7c0.5,0,1,0.2,1.4,0.7
						c0.4,0.5,0.7,0.9,0.7,1.4c0,0.5-0.2,1-0.7,1.4L85.4,71v12c0.3-0.3,1-1.1,2.1-2.2c1-1.1,2.2-2.3,3.5-3.7
						c1.3-1.4,2.7-2.8,4.3-4.3c1.5-1.5,2.9-2.9,4.2-4.1c1.3-1.3,2.4-2.3,3.4-3.1c1-0.8,1.6-1.2,1.8-1.2c0.8,0,1.4,0.3,1.8,0.8
						c0.5,0.8,1.8,2.6,3.9,5.4c2,2.8,4.4,6.1,7.2,9.9c2.7,3.8,5.6,7.7,8.7,11.9c3.1,4.2,5.9,8.1,8.4,11.7c2.6,3.6,4.7,6.7,6.3,9.2
						C142.8,115.6,143.6,117.1,143.6,117.4z"/>
				</g>
				<path class="st3" d="M80.2,3.8c0-1.8,1.5-3.3,3.3-3.3s3.3,1.5,3.3,3.3c0,1.8-1.5,3.3-3.3,3.3C81.6,7.1,80.2,5.6,80.2,3.8
					C80.2,3.8,80.2,3.8,80.2,3.8"/>
				<circle class="st4" cx="83.4" cy="3.8" r="3.3"/>
			</g>
		</g>
	</g>
</g>
</svg>